<!-- Generator: Adobe Illustrator 25.0.1, SVG Export Plug-In  -->
<svg version="1.1" xmlns="http://www.w3.org/2000/svg" xmlns:xlink="http://www.w3.org/1999/xlink" x="0px" y="0px" width="40px"
	 height="40px" viewBox="0 0 40 40" style="overflow:visible;enable-background:new 0 0 40 40;" xml:space="preserve">
	<path d="M20,9L9.3,19.2c-0.4,0.4-0.4,1,0,1.4s1,0.4,1.4,0l9.3-8.9l9.3,8.9c0.4,0.4,1,0.4,1.4,0c0.4-0.4,0.4-1,0-1.4L20,9z"/>
	<path d="M19,10.4v19.5c0,0.6,0.4,1,1,1s1-0.4,1-1V10.4H19z"/>
    <path d="M38,2v36H2V2H38 M40,0H0v40h40V0L40,0z"/>
</svg>
