<!-- Generator: Adobe Illustrator 25.0.1, SVG Export Plug-In  -->
<svg version="1.1" xmlns="http://www.w3.org/2000/svg" xmlns:xlink="http://www.w3.org/1999/xlink" x="0px" y="0px" width="40px"
	 height="40px" viewBox="0 0 40 40" style="overflow:visible;enable-background:new 0 0 40 40;" xml:space="preserve">
    <path d="M9,20l10.2,10.7c0.4,0.4,1,0.4,1.4,0s0.4-1,0-1.4L11.8,20l8.9-9.3c0.4-0.4,0.4-1,0-1.4c-0.4-0.4-1-0.4-1.4,0L9,20z"/>
    <path d="M10.4,21H30c0.6,0,1-0.4,1-1s-0.4-1-1-1H10.4V21z"/>
    <path d="M2,2v36h36V2H2 M0,0h40v40H0V0L0,0z"/>
</svg>
