<!-- Generator: Adobe Illustrator 25.0.1, SVG Export Plug-In  -->
<svg version="1.1" xmlns="http://www.w3.org/2000/svg" xmlns:xlink="http://www.w3.org/1999/xlink" x="0px" y="0px" width="40px"
	 height="40px" viewBox="0 0 40 40" overflow="visible" enable-background="new 0 0 40 40" xml:space="preserve">
<path d="M10,20c0-0.6,0.4-1,1-1h18c0.6,0,1,0.4,1,1s-0.4,1-1,1H11C10.4,21,10,20.6,10,20z"/>
<path d="M10,30c0-0.6,0.4-1,1-1h18c0.6,0,1,0.4,1,1s-0.4,1-1,1H11C10.4,31,10,30.6,10,30z"/>
<path d="M10,10c0-0.6,0.4-1,1-1h18c0.6,0,1,0.4,1,1s-0.4,1-1,1H11C10.4,11,10,10.6,10,10z"/>
</svg>
