<!-- Generator: Adobe Illustrator 25.0.1, SVG Export Plug-In  -->
<svg version="1.1" xmlns="http://www.w3.org/2000/svg" xmlns:xlink="http://www.w3.org/1999/xlink" x="0px" y="0px" width="40px"
	 height="40px" viewBox="0 0 40 40" style="overflow:visible;enable-background:new 0 0 40 40;" xml:space="preserve">
    <path class="st0" d="M38,2v36H2V2H38 M40,0H0v40h40V0L40,0z"/>
    <path class="st0" d="M15,30.5c-0.6,0-1-0.4-1-1v-19c0-0.6,0.4-1,1-1s1,0.4,1,1v19C16,30.1,15.6,30.5,15,30.5z"/>
	<path class="st0" d="M15,30.5c-0.3,0-0.6-0.1-0.8-0.4c-0.4-0.4-0.3-1.1,0.1-1.4L24.9,20l-10.6-8.7c-0.4-0.4-0.5-1-0.1-1.4
		c0.4-0.4,1-0.5,1.4-0.1L28.1,20L15.6,30.3C15.5,30.4,15.2,30.5,15,30.5z"/>
</svg>
