<!-- Generator: Adobe Illustrator 25.0.1, SVG Export Plug-In  -->
<svg version="1.1" xmlns="http://www.w3.org/2000/svg" xmlns:xlink="http://www.w3.org/1999/xlink" x="0px" y="0px" width="40px"
	 height="40px" viewBox="0 0 40 40" style="overflow:visible;enable-background:new 0 0 40 40;" xml:space="preserve">
    <path d="M20,0C9,0,0,9,0,20c0,11,9,20,20,20s20-9,20-20C40,9,31,0,20,0z M20,38c-9.9,0-18-8.1-18-18c0-9.9,8.1-18,18-18
        s18,8.1,18,18C38,29.9,29.9,38,20,38z"/>
    <circle cx="12" cy="16" r="2"/>
    <circle cx="28" cy="16" r="2"/>
	<path d="M20,29c-6.3,0-10.5-4.1-10.7-4.3c-0.4-0.4-0.4-1,0-1.4c0.4-0.4,1-0.4,1.4,0c0,0,3.8,3.7,9.3,3.7s9.3-3.7,9.3-3.7
		c0.4-0.4,1-0.4,1.4,0s0.4,1,0,1.4C30.5,24.9,26.3,29,20,29z"/>
</svg>
